#!OML:ASF \\Waltz\H\Terrain\Patient Classification 1\Animal2\Wednesday\Animal2.ASF
:FULLY-SPECIFIED
:DEGREES
2033
root 13.8421 18.9795 -19.7131 542.755 -197.382 -180.942
lowerback 0.856764 -2.79516 3.70317
upperback -2.5022 -3.58892 1.66615
thorax -3.17694 -1.85548 -0.221486
lowerneck -1.22951 5.72586 15.5889
upperneck -0.56573 7.6334 -17.3426
head 1.35397 3.76182 -7.69905
rclavicle -6.68786e-014 7.95139e-016
rhumerus -73.1577 61.1699 -98.0066
rradius 71.8487
rwrist 21.6257
rhand 12.1978 31.0263
rfingers 7.12502
rthumb 37.2078 5.01585
lclavicle -6.68786e-014 7.95139e-016
lhumerus -105.606 -45.5759 130.171
lradius 64.2782
lwrist 3.86212
lhand -20.1857 -2.21235
lfingers 7.12502
lthumb 6.16052 27.6781
rfemur -12.7754 -16.3942 20.254
rtibia 36.2127
rfoot 1.35176 -19.0507
rtoes 41.3179
lfemur -12.0943 10.4353 -17.4056
ltibia 26.6326
lfoot 4.17904 6.38133
ltoes -6.59278
2034
root 13.8476 18.8562 -19.7197 542.748 -195.993 -181.005
lowerback 0.912691 -2.8259 3.69179
upperback -2.41768 -3.6297 1.70698
thorax -3.11893 -1.87373 -0.171689
lowerneck -0.662846 6.01858 15.3251
upperneck -1.53064 8.00868 -17.3165
head 1.03465 3.98037 -7.6557
rclavicle 2.99047e-014 5.56597e-015
rhumerus -71.82 61.0915 -97.101
rradius 71.505
rwrist 21.5705
rhand 12.3249 31.1976
rfingers 7.12502
rthumb 37.3279 5.21862
lclavicle 2.99047e-014 5.56597e-015
lhumerus -104.724 -45.3169 129.849
lradius 63.25
lwrist 3.8364
lhand -22.9679 -2.42716
lfingers 7.12502
lthumb 3.47409 27.5243
rfemur -12.8326 -16.7973 20.3357
rtibia 36.4066
rfoot -0.813216 -17.4787
rtoes 40.3231
lfemur -12.3829 10.5698 -17.3703
ltibia 27.1177
lfoot 2.90643 5.9245
ltoes 0.895135
2035
root 13.8518 18.7252 -19.7293 542.743 -194.561 -181.103
lowerback 0.969357 -2.81948 3.67867
upperback -2.3548 -3.61913 1.78404
thorax -3.07961 -1.86627 -0.085138
lowerneck -0.232663 6.22673 15.2567
upperneck -2.12662 8.28916 -17.5282
head 0.847363 4.14419 -7.72158
rclavicle 6.04927e-014 -3.18055e-015
rhumerus -70.4972 60.9807 -96.1077
rradius 71.2363
rwrist 21.5731
rhand 12.82 31.4774
rfingers 7.12502
rthumb 37.7959 5.62297
lclavicle 6.04927e-014 -3.18055e-015
lhumerus -103.887 -45.0768 129.637
lradius 62.2644
lwrist 3.85468
lhand -20.6967 -1.40111
lfingers 7.12502
lthumb 5.66717 28.5031
rfemur -12.9391 -17.3134 20.4704
rtibia 36.6802
rfoot -2.799 -15.7976
rtoes 37.9115
lfemur -12.6955 11.3369 -17.3763
ltibia 28.0766
lfoot 0.388447 5.68071
ltoes 2.77134
2036
root 13.8549 18.6002 -19.7415 542.791 -193.137 -181.064
lowerback 1.08254 -2.78951 3.59727
upperback -2.36062 -3.57638 1.76769
thorax -3.14386 -1.84422 -0.0522485
lowerneck 0.184395 6.36082 15.5169
upperneck -2.48119 8.4952 -18.0746
head 0.751274 4.26965 -7.95287
rclavicle 2.4202e-014 -1.11319e-014
rhumerus -69.5987 60.8012 -95.4857
rradius 71.0386
rwrist 21.5057
rhand 12.9787 31.2998
rfingers 7.12502
rthumb 37.9458 5.48588
lclavicle 2.4202e-014 -1.11319e-014
lhumerus -103.395 -44.9386 129.865
lradius 61.1049
lwrist 3.67652
lhand -13.0544 0.167438
lfingers 7.12502
lthumb 13.0407 29.7398
rfemur -13.0922 -17.6911 20.4488
rtibia 37.1048
rfoot -4.67362 -14.1768
rtoes 35.9641
lfemur -13.0424 12.7215 -17.5715
ltibia 29.4514
lfoot -1.85161 6.30742
ltoes -7.09424
2037
root 13.8561 18.4734 -19.754 542.739 -191.736 -181.069
lowerback 1.38051 -2.79283 3.59658
upperback -2.43205 -3.56566 1.70876
thorax -3.38937 -1.84288 -0.0936406
lowerneck 0.928376 6.53671 15.8752
upperneck -2.92826 8.79271 -18.6186
head 0.596242 4.45713 -8.21142
rclavicle -4.66274e-014 2.94201e-014
rhumerus -69.173 60.611 -95.4492
rradius 70.8452
rwrist 21.2956
rhand 12.9408 31.1301
rfingers 7.12502
rthumb 37.91 5.30645
lclavicle -4.66274e-014 2.94201e-014
lhumerus -102.822 -44.6857 129.998
lradius 59.7172
lwrist 3.49395
lhand -13.0117 -0.079712
lfingers 7.12502
lthumb 13.0819 29.49
rfemur -13.1341 -17.9583 20.4181
rtibia 37.6289
rfoot -6.61431 -12.7596
rtoes 32.9703
lfemur -13.3858 14.4679 -17.6766
ltibia 31.107
lfoot -3.57345 6.77478
ltoes -16.9136
2038
root 13.8536 18.3364 -19.7695 542.575 -190.342 -181.248
lowerback 1.87636 -2.80965 3.71201
upperback -2.44568 -3.55928 1.69705
thorax -3.69175 -1.84586 -0.141883
lowerneck 1.38552 6.83627 16.1337
upperneck -3.33148 9.22571 -18.9655
head 0.514022 4.69859 -8.37095
rclavicle -4.33972e-014 -4.77083e-015
rhumerus -68.4543 60.5204 -95.3867
rradius 70.5458
rwrist 21.1302
rhand 13.0243 31.1497
rfingers 7.12502
rthumb 37.9888 5.34738
lclavicle -4.33972e-014 -4.77083e-015
lhumerus -101.869 -44.5173 129.742
lradius 58.3147
lwrist 3.31796
lhand -12.5857 -0.148692
lfingers 7.12502
lthumb 13.4925 29.3942
rfemur -13.0908 -18.0543 20.569
rtibia 38.1455
rfoot -8.59633 -11.7072
rtoes 29.0269
lfemur -13.7497 16.2262 -17.5015
ltibia 32.8431
lfoot -5.94435 6.25243
ltoes -18.5802
